<?xml version="1.0" encoding="UTF-8"?>
<svg width="24" height="24" viewBox="0 0 24 24" fill="none" xmlns="http://www.w3.org/2000/svg">
    <path d="M4 4H20C21.1 4 22 4.9 22 6V18C22 19.1 21.1 20 20 20H4C2.9 20 2 19.1 2 18V6C2 4.9 2.9 4 4 4ZM4 6V18H20V6H4Z" fill="#1A56DB"/>
    <path d="M12 12.5L14.5 15L19 10L16.5 7.5L12 12.5Z" fill="#1A56DB"/>
    <path d="M12 13.5L9.5 16L5 11L7.5 8.5L12 13.5Z" fill="#1A56DB"/>
    <path d="M12 14.5L14.5 17.5L19 12L16.5 9.5L12 14.5Z" fill="#1A56DB"/>
    <path d="M12 15.5L9.5 18.5L5 13L7.5 10.5L12 15.5Z" fill="#1A56DB"/>
</svg>
